2026-06-30 11:20:19,233 [INFO] src.pipeline.pipeline_runner: ==================================================
2026-06-30 11:20:19,233 [INFO] src.pipeline.pipeline_runner: パイプライン開始: C:/Users/evolu/Downloads/soccer.mp4
2026-06-30 11:55:15,413 [INFO] src.modules.volume_analyzer: 測定区間を標本化: 740 → 100 区間 (長い順)
2026-06-30 11:57:23,728 [INFO] src.modules.volume_analyzer: 発話区間の最低dB=-41 (mean, 測定 100/740 区間)
2026-06-30 11:57:38,963 [INFO] src.pipeline.pipeline_runner: カット閾値を更新し保存: -41 dB
2026-06-30 11:57:38,963 [INFO] src.modules.silence_cutter: 無音カット開始: threshold=-41dB, min=0.600s, fade=False
2026-06-30 12:32:56,122 [INFO] src.modules.silence_cutter: 検出された無音区間: 1101 件
2026-06-30 12:41:16,264 [ERROR] src.modules.ffmpeg_runner: FFmpeg 失敗 (code=3221225786):       encoder         : Lavc62.29.100 libx264
      handler_name    : VideoHandler
    Side data:
      CPB properties: bitrate max/min/avg: 0/0/0 buffer size: 0 vbv_delay: N/A
  Stream #0:1(und): Audio: aac (LC) (mp4a / 0x6134706D), 48000 Hz, stereo, fltp, 128 kb/s (default)
    Metadata:
      encoder         : Lavc62.29.100 aac
      handler_name    : SoundHandler
[out#0/mp4 @ 000001b030937700] video:1487KiB audio:21KiB subtitle:0KiB other streams:0KiB global headers:0KiB muxing overhead: 0.233173%
frame=   79 fps= 18 q=-1.0 Lsize=    1512KiB time=00:00:01.28 bitrate=9649.5kbits/s speed=0.298x elapsed=0:00:04.31    
[libx264 @ 000001b032b66180] frame I:1     Avg QP:21.07  size:115812
[libx264 @ 000001b032b66180] frame P:23    Avg QP:20.95  size: 45081
[libx264 @ 000001b032b66180] frame B:55    Avg QP:22.26  size:  6721
[libx264 @ 000001b032b66180] consecutive B-frames:  1.3% 17.7%  0.0% 81.0%
[libx264 @ 000001b032b66180] mb I  I16..4: 13.1% 78.4%  8.5%
[libx264 @ 000001b032b66180] mb P  I16..4:  2.9%  9.2%  0.3%  P16..4: 51.3%  9.1%  5.5%  0.0%  0.0%    skip:21.8%
[libx264 @ 000001b032b66180] mb B  I16..4:  0.2%  0.4%  0.0%  B16..8: 25.9%  0.6%  0.1%  direct: 0.9%  skip:71.8%  L0:68.8% L1:28.8% BI: 2.4%
[libx264 @ 000001b032b66180] 8x8 transform intra:74.8% inter:89.4%
[libx264 @ 000001b032b66180] coded y,uvDC,uvAC intra: 43.7% 38.3% 7.4% inter: 9.4% 10.4% 0.1%
[libx264 @ 000001b032b66180] i16 v,h,dc,p: 33% 19% 13% 36%
[libx264 @ 000001b032b66180] i8 v,h,dc,ddl,ddr,vr,hd,vl,hu: 21% 14% 33%  5%  5%  6%  5%  6%  5%
[libx264 @ 000001b032b66180] i4 v,h,dc,ddl,ddr,vr,hd,vl,hu: 30% 17% 14%  6%  9%  8%  7%  5%  3%
[libx264 @ 000001b032b66180] i8c dc,h,v,p: 55% 19% 21%  5%
[libx264 @ 000001b032b66180] Weighted P-Frames: Y:47.8% UV:0.0%
[libx264 @ 000001b032b66180] ref P L0: 55.1% 13.7% 19.0%  9.0%  3.2%
[libx264 @ 000001b032b66180] ref B L0: 90.0%  7.4%  2.6%
[libx264 @ 000001b032b66180] ref B L1: 97.8%  2.2%
[libx264 @ 000001b032b66180] kb/s:9249.44
[aac @ 000001b030d313c0] Qavg: 245.371
Exiting normally, received signal 15.
2026-06-30 12:42:33,153 [INFO] src.pipeline.pipeline_runner: ==================================================
2026-06-30 12:42:33,153 [INFO] src.pipeline.pipeline_runner: パイプライン開始: C:/Users/evolu/Downloads/soccer.mp4
2026-06-30 13:16:33,928 [INFO] src.modules.volume_analyzer: 測定区間を標本化: 740 → 100 区間 (長い順)
2026-06-30 13:18:37,773 [INFO] src.modules.volume_analyzer: 発話区間の最低dB=-41 (mean, 測定 100/740 区間)
2026-06-30 13:19:17,038 [INFO] src.pipeline.pipeline_runner: カット閾値を更新し保存: -41 dB
2026-06-30 13:19:17,039 [INFO] src.modules.silence_cutter: 無音カット開始: threshold=-41dB, min=0.600s, fade=False
2026-06-30 13:56:55,706 [INFO] src.modules.silence_cutter: 検出された無音区間: 1101 件
2026-06-30 15:15:29,716 [INFO] src.modules.silence_cutter: 無音カット完了: C:\Users\evolu\AppData\Local\Temp\autoedit_stswqgmz\silence_cut.mp4
2026-06-30 15:16:32,739 [INFO] src.modules.subtitle_generator: 音声認識開始 (model=large-v3, device=cpu, compute_type=int8, 設定=cpu)
2026-06-30 15:16:32,739 [INFO] src.modules.subtitle_generator: 音声認識実行 (device=cpu, compute_type=int8)
2026-06-30 15:16:42,365 [INFO] src.modules.subtitle_generator: VAD フィルタ有効 (min_silence=500ms, condition_on_previous_text=False)
2026-06-30 16:12:40,199 [INFO] src.modules.subtitle_generator: 音声認識完了 (998 セグメント)
2026-06-30 16:12:41,733 [INFO] src.modules.subtitle_generator: テロップ表示タイミング整形: 998 → 998 区間 (max_hold=2.0s, min_dur=0.5s)
2026-06-30 17:12:25,838 [ERROR] src.modules.ffmpeg_runner: FFmpeg 失敗 (code=4294967274): [Parsed_subtitles_0 @ 0000012b7f9918c0] Using font provider directwrite (with GDI)
[Parsed_subtitles_0 @ 0000012b7f9918c0] fontselect: (Yu Gothic UI, 700, 0) -> YuGothicUI-Bold, 1, YuGothicUI-Bold
[mp4 @ 0000012b7faa5d00] Application provided duration: 245404385355 in stream 0 is invalid
[vost#0:0/libx264 @ 0000012b7faa6600] Error submitting a packet to the muxer: Invalid argument
    Last message repeated 1 times
[out#0/mp4 @ 0000012b7faa5c00] Error muxing a packet
[out#0/mp4 @ 0000012b7faa5c00] Task finished with error code: -22 (Invalid argument)
[out#0/mp4 @ 0000012b7faa5c00] Terminating thread with return code -22 (Invalid argument)
[out#0/mp4 @ 0000012b7faa5c00] video:151305KiB audio:11056KiB subtitle:0KiB other streams:0KiB global headers:0KiB muxing overhead: 0.096804%
frame= 4525 fps=6.5 q=-1.0 Lsize=  162518KiB time=00:11:09.36 bitrate=1989.0kbits/s dup=0 drop=35074 speed=0.956x elapsed=0:11:40.51    
[libx264 @ 0000012b7f63b740] frame I:21    Avg QP:14.69  size:190871
[libx264 @ 0000012b7f63b740] frame P:1192  Avg QP:17.64  size: 67224
[libx264 @ 0000012b7f63b740] frame B:3388  Avg QP:19.28  size: 22016
[libx264 @ 0000012b7f63b740] consecutive B-frames:  1.0%  1.7%  1.9% 95.4%
[libx264 @ 0000012b7f63b740] mb I  I16..4: 13.7% 69.8% 16.4%
[libx264 @ 0000012b7f63b740] mb P  I16..4:  4.7% 14.8%  1.3%  P16..4: 41.4% 15.3%  7.5%  0.0%  0.0%    skip:15.0%
[libx264 @ 0000012b7f63b740] mb B  I16..4:  0.9%  2.0%  0.1%  B16..8: 39.9%  4.3%  0.5%  direct: 5.6%  skip:46.9%  L0:48.1% L1:48.7% BI: 3.2%
[libx264 @ 0000012b7f63b740] 8x8 transform intra:70.3% inter:84.1%
[libx264 @ 0000012b7f63b740] coded y,uvDC,uvAC intra: 39.9% 42.2% 10.5% inter: 16.5% 21.1% 0.3%
[libx264 @ 0000012b7f63b740] i16 v,h,dc,p: 34% 21% 14% 31%
[libx264 @ 0000012b7f63b740] i8 v,h,dc,ddl,ddr,vr,hd,vl,hu: 25% 16% 34%  4%  5%  6%  4%  4%  3%
[libx264 @ 0000012b7f63b740] i4 v,h,dc,ddl,ddr,vr,hd,vl,hu: 35% 22% 14%  4%  6%  6%  5%  4%  3%
[libx264 @ 0000012b7f63b740] i8c dc,h,v,p: 56% 19% 21%  4%
[libx264 @ 0000012b7f63b740] Weighted P-Frames: Y:9.9% UV:1.4%
[libx264 @ 0000012b7f63b740] ref P L0: 55.0% 10.3% 23.9% 10.3%  0.6%
[libx264 @ 0000012b7f63b740] ref B L0: 81.7% 14.5%  3.8%
[libx264 @ 0000012b7f63b740] ref B L1: 93.2%  6.8%
[libx264 @ 0000012b7f63b740] kb/s:1886.67
[aac @ 0000012b7fa83dc0] Qavg: 946.858
Conversion failed!
2026-06-30 17:12:25,838 [ERROR] src.pipeline.pipeline_runner: パイプライン中断: 既知エラー
Traceback (most recent call last):
  File "D:\develop\autoedit\src\pipeline\pipeline_runner.py", line 57, in run_pipeline
    subtitle_generator.run(context)
  File "D:\develop\autoedit\src\modules\subtitle_generator.py", line 620, in run
    burn_subtitle(
  File "D:\develop\autoedit\src\modules\subtitle_generator.py", line 344, in burn_subtitle
    ffmpeg_runner.execute(cmd, total_duration=total_duration, on_progress=on_progress)
  File "D:\develop\autoedit\src\modules\ffmpeg_runner.py", line 84, in execute
    raise FFmpegError(
src.exceptions.FFmpegError: FFmpeg 実行失敗 (returncode=4294967274)
2026-06-30 17:12:26,184 [ERROR] __main__: パイプライン実行に失敗
Traceback (most recent call last):
  File "D:\develop\autoedit\src\gui\main_window.py", line 157, in run
    output = run_pipeline(
             ^^^^^^^^^^^^^
  File "D:\develop\autoedit\src\pipeline\pipeline_runner.py", line 57, in run_pipeline
    subtitle_generator.run(context)
  File "D:\develop\autoedit\src\modules\subtitle_generator.py", line 620, in run
    burn_subtitle(
  File "D:\develop\autoedit\src\modules\subtitle_generator.py", line 344, in burn_subtitle
    ffmpeg_runner.execute(cmd, total_duration=total_duration, on_progress=on_progress)
  File "D:\develop\autoedit\src\modules\ffmpeg_runner.py", line 84, in execute
    raise FFmpegError(
src.exceptions.FFmpegError: FFmpeg 実行失敗 (returncode=4294967274)
2026-06-30 17:19:46,721 [INFO] src.pipeline.pipeline_runner: ==================================================
2026-06-30 17:19:46,721 [INFO] src.pipeline.pipeline_runner: パイプライン開始: C:/Users/evolu/Downloads/soccer.mp4
2026-06-30 18:41:28,210 [INFO] src.pipeline.pipeline_runner: ==================================================
2026-06-30 18:41:28,210 [INFO] src.pipeline.pipeline_runner: パイプライン開始: C:/Users/evolu/Downloads/kokuzoku.mp4
2026-06-30 18:41:40,135 [INFO] src.modules.volume_analyzer: 発話区間の最低dB=-31 (mean, 測定 8/8 区間)
2026-06-30 18:45:04,762 [INFO] src.pipeline.pipeline_runner: カット閾値を更新し保存: -31 dB
2026-06-30 18:45:04,762 [INFO] src.modules.silence_cutter: 無音カット開始: threshold=-31dB, min=0.600s, fade=False
2026-06-30 18:45:11,346 [INFO] src.modules.silence_cutter: 検出された無音区間: 12 件
2026-06-30 18:45:34,128 [INFO] src.modules.silence_cutter: 無音カット完了: C:\Users\evolu\AppData\Local\Temp\autoedit_kxtdl_58\silence_cut.mp4
2026-06-30 18:45:37,162 [INFO] src.modules.subtitle_generator: 音声認識開始 (model=large-v3, device=cpu, compute_type=int8, 設定=cpu)
2026-06-30 18:45:37,162 [INFO] src.modules.subtitle_generator: 音声認識実行 (device=cpu, compute_type=int8)
2026-06-30 18:45:43,327 [INFO] src.modules.subtitle_generator: VAD フィルタ有効 (min_silence=500ms, condition_on_previous_text=False)
2026-06-30 18:46:11,030 [INFO] src.modules.subtitle_generator: 音声認識完了 (9 セグメント)
2026-06-30 18:46:11,230 [INFO] src.modules.subtitle_generator: テロップ表示タイミング整形: 9 → 9 区間 (max_hold=2.0s, min_dur=0.5s)
2026-06-30 18:48:44,110 [ERROR] src.modules.ffmpeg_runner: FFmpeg 失敗 (code=4294967274): Input #0, mov,mp4,m4a,3gp,3g2,mj2, from 'C:\Users\evolu\AppData\Local\Temp\autoedit_kxtdl_58\silence_cut.mp4':
  Metadata:
    major_brand     : isom
    minor_version   : 512
    compatible_brands: isomiso2avc1mp41
    encoder         : Lavf62.13.100
  Duration: 00:00:11.74, start: 0.012000, bitrate: 6153 kb/s
  Stream #0:0[0x1](und): Video: h264 (High) (avc1 / 0x31637661), yuv420p(tv, bt709, progressive), 2560x1440 [SAR 1:1 DAR 16:9], 6018 kb/s, 58.86 fps, 240 tbr, 15360 tbn, start 0.033008 (default)
    Metadata:
      handler_name    : VideoHandler
      encoder         : Lavc62.29.100 libx264
  Stream #0:1[0x2](und): Audio: aac (LC) (mp4a / 0x6134706D), 48000 Hz, stereo, fltp, 132 kb/s, start 0.012000 (default)
    Metadata:
      handler_name    : SoundHandler
[Parsed_subtitles_0 @ 00000214c1b5ed00] Unable to parse "original_size" option value "/Users/evolu/AppData/Local/Temp/autoedit_kxtdl_58/subtitle.ass" as image size
[fc#-1 @ 00000214c1329dc0] Error applying option 'original_size' to filter 'subtitles': Invalid argument
Error opening output file C:\Users\evolu\AppData\Local\Temp\autoedit_kxtdl_58\subtitle.mp4.
Error opening output files: Invalid argument
2026-06-30 18:48:44,120 [ERROR] src.pipeline.pipeline_runner: パイプライン中断: 既知エラー
Traceback (most recent call last):
  File "D:\develop\autoedit\src\pipeline\pipeline_runner.py", line 57, in run_pipeline
    subtitle_generator.run(context)
  File "D:\develop\autoedit\src\modules\subtitle_generator.py", line 632, in run
    burn_subtitle(
  File "D:\develop\autoedit\src\modules\subtitle_generator.py", line 356, in burn_subtitle
    ffmpeg_runner.execute(cmd, total_duration=total_duration, on_progress=on_progress)
  File "D:\develop\autoedit\src\modules\ffmpeg_runner.py", line 94, in execute
    raise FFmpegError(
src.exceptions.FFmpegError: FFmpeg 実行失敗 (returncode=4294967274)
2026-06-30 18:48:44,120 [ERROR] __main__: パイプライン実行に失敗
Traceback (most recent call last):
  File "D:\develop\autoedit\src\gui\main_window.py", line 171, in run
    output = run_pipeline(
             ^^^^^^^^^^^^^
  File "D:\develop\autoedit\src\pipeline\pipeline_runner.py", line 57, in run_pipeline
    subtitle_generator.run(context)
  File "D:\develop\autoedit\src\modules\subtitle_generator.py", line 632, in run
    burn_subtitle(
  File "D:\develop\autoedit\src\modules\subtitle_generator.py", line 356, in burn_subtitle
    ffmpeg_runner.execute(cmd, total_duration=total_duration, on_progress=on_progress)
  File "D:\develop\autoedit\src\modules\ffmpeg_runner.py", line 94, in execute
    raise FFmpegError(
src.exceptions.FFmpegError: FFmpeg 実行失敗 (returncode=4294967274)
2026-06-30 19:08:03,041 [INFO] src.pipeline.pipeline_runner: ==================================================
2026-06-30 19:08:03,041 [INFO] src.pipeline.pipeline_runner: パイプライン開始: C:/Users/evolu/Downloads/kokuzoku.mp4
2026-06-30 19:08:14,209 [INFO] src.modules.volume_analyzer: 発話区間の最低dB=-31 (mean, 測定 8/8 区間)
2026-06-30 19:08:16,142 [INFO] src.pipeline.pipeline_runner: カット閾値を更新し保存: -31 dB
2026-06-30 19:08:16,149 [INFO] src.modules.silence_cutter: 無音カット開始: threshold=-31dB, min=0.600s, fade=False
2026-06-30 19:08:23,119 [INFO] src.modules.silence_cutter: 検出された無音区間: 12 件
2026-06-30 19:08:47,963 [INFO] src.modules.silence_cutter: 無音カット完了: C:\Users\evolu\AppData\Local\Temp\autoedit_bdbs2ly7\silence_cut.mp4
2026-06-30 19:08:50,899 [INFO] src.modules.subtitle_generator: 音声認識開始 (model=large-v3, device=cpu, compute_type=int8, 設定=cpu)
2026-06-30 19:08:50,899 [INFO] src.modules.subtitle_generator: 音声認識実行 (device=cpu, compute_type=int8)
2026-06-30 19:08:57,163 [INFO] src.modules.subtitle_generator: VAD フィルタ有効 (min_silence=500ms, condition_on_previous_text=False)
2026-06-30 19:09:25,112 [INFO] src.modules.subtitle_generator: 音声認識完了 (9 セグメント)
2026-06-30 19:09:25,302 [INFO] src.modules.subtitle_generator: テロップ表示タイミング整形: 9 → 9 区間 (max_hold=2.0s, min_dur=0.5s)
2026-06-30 19:10:12,141 [INFO] src.modules.concat_processor: オープニング結合 スキップ (フラグ無効)
2026-06-30 19:10:12,141 [INFO] src.modules.concat_processor: エンディング結合 スキップ (フラグ無効)
2026-06-30 19:10:12,154 [INFO] src.modules.output_writer: 出力完了: D:/develop/autoedit/output\kokuzoku_edited.mp4
2026-06-30 19:10:12,154 [INFO] src.pipeline.pipeline_runner: パイプライン正常終了: D:/develop/autoedit/output\kokuzoku_edited.mp4
2026-06-30 19:12:44,801 [INFO] src.pipeline.pipeline_runner: ==================================================
2026-06-30 19:12:44,802 [INFO] src.pipeline.pipeline_runner: パイプライン開始: C:/Users/evolu/Downloads/soccer.mp4
2026-06-30 19:46:33,537 [INFO] src.modules.volume_analyzer: 測定区間を標本化: 740 → 100 区間 (長い順)
2026-06-30 19:48:36,675 [INFO] src.modules.volume_analyzer: 発話区間の最低dB=-41 (mean, 測定 100/740 区間)
2026-06-30 19:50:31,457 [INFO] src.pipeline.pipeline_runner: カット閾値を更新し保存: -41 dB
2026-06-30 19:50:31,457 [INFO] src.modules.silence_cutter: 無音カット開始: threshold=-41dB, min=0.600s, fade=False
2026-06-30 20:24:16,068 [INFO] src.modules.silence_cutter: 検出された無音区間: 1101 件
2026-06-30 21:32:16,639 [INFO] src.modules.silence_cutter: 無音カット完了: C:\Users\evolu\AppData\Local\Temp\autoedit_enzc6v_5\silence_cut.mp4
2026-06-30 21:32:21,219 [INFO] src.modules.subtitle_generator: 音声認識開始 (model=large-v3, device=cpu, compute_type=int8, 設定=cpu)
2026-06-30 21:32:21,219 [INFO] src.modules.subtitle_generator: 音声認識実行 (device=cpu, compute_type=int8)
2026-06-30 21:32:29,418 [INFO] src.modules.subtitle_generator: VAD フィルタ有効 (min_silence=500ms, condition_on_previous_text=False)
2026-06-30 22:27:40,796 [INFO] src.modules.subtitle_generator: 音声認識完了 (1029 セグメント)
2026-06-30 22:27:41,082 [INFO] src.modules.subtitle_generator: テロップ表示タイミング整形: 1029 → 1029 区間 (max_hold=2.0s, min_dur=0.5s)
2026-07-01 01:57:58,496 [INFO] src.modules.concat_processor: オープニング結合 スキップ (フラグ無効)
2026-07-01 01:57:58,498 [INFO] src.modules.concat_processor: エンディング結合 スキップ (フラグ無効)
2026-07-01 01:57:59,317 [INFO] src.modules.output_writer: 出力完了: D:/develop/autoedit/output\soccer_edited.mp4
2026-07-01 01:57:59,317 [INFO] src.pipeline.pipeline_runner: パイプライン正常終了: D:/develop/autoedit/output\soccer_edited.mp4
